<mxfile host="Electron" agent="Mozilla/5.0 (Windows NT 10.0; Win64; x64) AppleWebKit/537.36 (KHTML, like Gecko) draw.io/28.2.5 Chrome/138.0.7204.251 Electron/37.6.1 Safari/537.36" version="28.2.5">
  <diagram name="Page-1" id="929967ad-93f9-6ef4-fab6-5d389245f69c">
    <mxGraphModel dx="1616" dy="1187" grid="1" gridSize="10" guides="1" tooltips="1" connect="1" arrows="1" fold="1" page="1" pageScale="1.5" pageWidth="1169" pageHeight="826" background="none" math="0" shadow="0">
      <root>
        <mxCell id="0" style=";html=1;" />
        <mxCell id="1" style=";html=1;" parent="0" />
        <mxCell id="bhYcvt21sX71MlY_wyxP-8" value="" style="ellipse;whiteSpace=wrap;html=1;align=center;aspect=fixed;fillColor=none;strokeColor=none;resizable=0;perimeter=centerPerimeter;rotatable=0;allowArrows=0;points=[];outlineConnect=1;" parent="1" vertex="1">
          <mxGeometry x="375" y="260" width="10" height="10" as="geometry" />
        </mxCell>
        <mxCell id="bhYcvt21sX71MlY_wyxP-34" value="Функциональная схема модуля финансового учёта" style="text;align=center;fontStyle=1;verticalAlign=middle;spacingLeft=3;spacingRight=3;strokeColor=none;rotatable=0;points=[[0,0.5],[1,0.5]];portConstraint=eastwest;html=1;" parent="1" vertex="1">
          <mxGeometry x="830" y="40" width="80" height="26" as="geometry" />
        </mxCell>
        <mxCell id="0nuhWoVMp7FjzyUyhsKw-11" value="Хранилище финансовых транзакций" style="shape=module;align=left;spacingLeft=20;align=center;verticalAlign=top;whiteSpace=wrap;html=1;" vertex="1" parent="1">
          <mxGeometry x="555" y="530" width="300" height="150" as="geometry" />
        </mxCell>
        <mxCell id="0nuhWoVMp7FjzyUyhsKw-12" value="" style="rounded=0;orthogonalLoop=1;jettySize=auto;html=1;endArrow=halfCircle;endFill=0;endSize=6;strokeWidth=1;sketch=0;exitX=0.295;exitY=0.997;exitDx=0;exitDy=0;exitPerimeter=0;edgeStyle=orthogonalEdgeStyle;" edge="1" parent="1" source="0nuhWoVMp7FjzyUyhsKw-28">
          <mxGeometry relative="1" as="geometry">
            <mxPoint x="545" y="350" as="sourcePoint" />
            <mxPoint x="705" y="480" as="targetPoint" />
          </mxGeometry>
        </mxCell>
        <mxCell id="0nuhWoVMp7FjzyUyhsKw-13" value="" style="rounded=0;orthogonalLoop=1;jettySize=auto;html=1;endArrow=oval;endFill=0;sketch=0;sourcePerimeterSpacing=0;targetPerimeterSpacing=0;endSize=10;exitX=0.5;exitY=0;exitDx=0;exitDy=0;edgeStyle=orthogonalEdgeStyle;" edge="1" parent="1" source="0nuhWoVMp7FjzyUyhsKw-11">
          <mxGeometry relative="1" as="geometry">
            <mxPoint x="315" y="415" as="sourcePoint" />
            <mxPoint x="705" y="480" as="targetPoint" />
          </mxGeometry>
        </mxCell>
        <mxCell id="0nuhWoVMp7FjzyUyhsKw-14" value="" style="ellipse;whiteSpace=wrap;html=1;align=center;aspect=fixed;fillColor=none;strokeColor=none;resizable=0;perimeter=centerPerimeter;rotatable=0;allowArrows=0;points=[];outlineConnect=1;" vertex="1" parent="1">
          <mxGeometry x="515" y="540" width="10" height="10" as="geometry" />
        </mxCell>
        <mxCell id="0nuhWoVMp7FjzyUyhsKw-15" value="" style="rounded=0;orthogonalLoop=1;jettySize=auto;html=1;endArrow=oval;endFill=0;sketch=0;sourcePerimeterSpacing=0;targetPerimeterSpacing=0;endSize=10;exitX=0.026;exitY=0.454;exitDx=0;exitDy=0;exitPerimeter=0;" edge="1" parent="1" source="0nuhWoVMp7FjzyUyhsKw-28">
          <mxGeometry relative="1" as="geometry">
            <mxPoint x="545" y="260" as="sourcePoint" />
            <mxPoint x="565" y="290" as="targetPoint" />
          </mxGeometry>
        </mxCell>
        <mxCell id="0nuhWoVMp7FjzyUyhsKw-16" value="API&amp;nbsp;&lt;span style=&quot;background-color: light-dark(#ffffff, var(--ge-dark-color, #121212)); color: light-dark(rgb(0, 0, 0), rgb(255, 255, 255));&quot;&gt;мониторинга&amp;nbsp;&lt;/span&gt;" style="edgeLabel;html=1;align=center;verticalAlign=middle;resizable=0;points=[];" vertex="1" connectable="0" parent="0nuhWoVMp7FjzyUyhsKw-15">
          <mxGeometry x="0.5111" y="1" relative="1" as="geometry">
            <mxPoint x="51" y="-1" as="offset" />
          </mxGeometry>
        </mxCell>
        <mxCell id="0nuhWoVMp7FjzyUyhsKw-17" value="" style="rounded=0;orthogonalLoop=1;jettySize=auto;html=1;endArrow=halfCircle;endFill=0;endSize=6;strokeWidth=1;sketch=0;fontSize=12;curved=1;exitX=0.777;exitY=-0.001;exitDx=0;exitDy=0;exitPerimeter=0;" edge="1" parent="1" source="0nuhWoVMp7FjzyUyhsKw-28">
          <mxGeometry relative="1" as="geometry">
            <mxPoint x="845" y="150" as="sourcePoint" />
            <mxPoint x="935" y="140" as="targetPoint" />
          </mxGeometry>
        </mxCell>
        <mxCell id="0nuhWoVMp7FjzyUyhsKw-18" value="API безопасности" style="edgeLabel;html=1;align=center;verticalAlign=middle;resizable=0;points=[];" vertex="1" connectable="0" parent="0nuhWoVMp7FjzyUyhsKw-17">
          <mxGeometry x="0.2066" y="1" relative="1" as="geometry">
            <mxPoint as="offset" />
          </mxGeometry>
        </mxCell>
        <mxCell id="0nuhWoVMp7FjzyUyhsKw-19" value="" style="ellipse;whiteSpace=wrap;html=1;align=center;aspect=fixed;fillColor=none;strokeColor=none;resizable=0;perimeter=centerPerimeter;rotatable=0;allowArrows=0;points=[];outlineConnect=1;" vertex="1" parent="1">
          <mxGeometry x="715" y="110" width="10" height="10" as="geometry" />
        </mxCell>
        <mxCell id="0nuhWoVMp7FjzyUyhsKw-22" value="" style="ellipse;whiteSpace=wrap;html=1;align=center;aspect=fixed;fillColor=none;strokeColor=none;resizable=0;perimeter=centerPerimeter;rotatable=0;allowArrows=0;points=[];outlineConnect=1;" vertex="1" parent="1">
          <mxGeometry x="450" y="600" width="10" height="10" as="geometry" />
        </mxCell>
        <mxCell id="0nuhWoVMp7FjzyUyhsKw-23" value="" style="rounded=0;orthogonalLoop=1;jettySize=auto;html=1;endArrow=halfCircle;endFill=0;endSize=6;strokeWidth=1;sketch=0;fontSize=12;curved=1;exitX=0.897;exitY=-0.001;exitDx=0;exitDy=0;exitPerimeter=0;" edge="1" parent="1" source="0nuhWoVMp7FjzyUyhsKw-11">
          <mxGeometry relative="1" as="geometry">
            <mxPoint x="845" y="520" as="sourcePoint" />
            <mxPoint x="824" y="440" as="targetPoint" />
          </mxGeometry>
        </mxCell>
        <mxCell id="0nuhWoVMp7FjzyUyhsKw-24" value="API безопасности" style="edgeLabel;html=1;align=center;verticalAlign=middle;resizable=0;points=[];" vertex="1" connectable="0" parent="0nuhWoVMp7FjzyUyhsKw-23">
          <mxGeometry x="0.2066" y="1" relative="1" as="geometry">
            <mxPoint as="offset" />
          </mxGeometry>
        </mxCell>
        <mxCell id="0nuhWoVMp7FjzyUyhsKw-25" value="Подсистема нормативно-справочной информации" style="shape=module;align=left;spacingLeft=20;align=center;verticalAlign=top;whiteSpace=wrap;html=1;" vertex="1" parent="1">
          <mxGeometry x="885" y="530" width="300" height="150" as="geometry" />
        </mxCell>
        <mxCell id="0nuhWoVMp7FjzyUyhsKw-26" value="" style="rounded=0;orthogonalLoop=1;jettySize=auto;html=1;endArrow=oval;endFill=0;sketch=0;sourcePerimeterSpacing=0;targetPerimeterSpacing=0;endSize=10;" edge="1" parent="1">
          <mxGeometry relative="1" as="geometry">
            <mxPoint x="1045" y="680" as="sourcePoint" />
            <mxPoint x="1045" y="760" as="targetPoint" />
          </mxGeometry>
        </mxCell>
        <mxCell id="0nuhWoVMp7FjzyUyhsKw-27" value="Административный API" style="edgeLabel;html=1;align=center;verticalAlign=middle;resizable=0;points=[];" vertex="1" connectable="0" parent="0nuhWoVMp7FjzyUyhsKw-26">
          <mxGeometry x="0.1081" y="-1" relative="1" as="geometry">
            <mxPoint as="offset" />
          </mxGeometry>
        </mxCell>
        <mxCell id="0nuhWoVMp7FjzyUyhsKw-28" value="&amp;nbsp;Процессор финансовых транзакций" style="shape=module;align=left;spacingLeft=20;align=center;verticalAlign=top;whiteSpace=wrap;html=1;" vertex="1" parent="1">
          <mxGeometry x="725" y="230" width="270" height="130" as="geometry" />
        </mxCell>
        <mxCell id="0nuhWoVMp7FjzyUyhsKw-29" value="" style="rounded=0;orthogonalLoop=1;jettySize=auto;html=1;endArrow=oval;endFill=0;sketch=0;sourcePerimeterSpacing=0;targetPerimeterSpacing=0;endSize=10;exitX=1;exitY=0.5;exitDx=0;exitDy=0;" edge="1" parent="1">
          <mxGeometry relative="1" as="geometry">
            <mxPoint x="995" y="294.86" as="sourcePoint" />
            <mxPoint x="1165" y="294.86" as="targetPoint" />
          </mxGeometry>
        </mxCell>
        <mxCell id="0nuhWoVMp7FjzyUyhsKw-30" value="API финансового учёта" style="edgeLabel;html=1;align=center;verticalAlign=middle;resizable=0;points=[];" vertex="1" connectable="0" parent="0nuhWoVMp7FjzyUyhsKw-29">
          <mxGeometry x="0.1081" y="-1" relative="1" as="geometry">
            <mxPoint y="-1" as="offset" />
          </mxGeometry>
        </mxCell>
        <mxCell id="0nuhWoVMp7FjzyUyhsKw-31" value="" style="rounded=0;orthogonalLoop=1;jettySize=auto;html=1;endArrow=halfCircle;endFill=0;endSize=6;strokeWidth=1;sketch=0;fontSize=12;curved=1;exitX=0.897;exitY=-0.001;exitDx=0;exitDy=0;exitPerimeter=0;" edge="1" parent="1">
          <mxGeometry relative="1" as="geometry">
            <mxPoint x="1145" y="530" as="sourcePoint" />
            <mxPoint x="1145" y="440" as="targetPoint" />
          </mxGeometry>
        </mxCell>
        <mxCell id="0nuhWoVMp7FjzyUyhsKw-32" value="API безопасности" style="edgeLabel;html=1;align=center;verticalAlign=middle;resizable=0;points=[];" vertex="1" connectable="0" parent="0nuhWoVMp7FjzyUyhsKw-31">
          <mxGeometry x="0.2066" y="1" relative="1" as="geometry">
            <mxPoint as="offset" />
          </mxGeometry>
        </mxCell>
        <mxCell id="0nuhWoVMp7FjzyUyhsKw-33" value="" style="rounded=0;orthogonalLoop=1;jettySize=auto;html=1;endArrow=halfCircle;endFill=0;endSize=6;strokeWidth=1;sketch=0;exitX=0.75;exitY=1;exitDx=0;exitDy=0;edgeStyle=orthogonalEdgeStyle;" edge="1" parent="1" source="0nuhWoVMp7FjzyUyhsKw-28">
          <mxGeometry relative="1" as="geometry">
            <mxPoint x="855" y="490" as="sourcePoint" />
            <mxPoint x="1045" y="480" as="targetPoint" />
          </mxGeometry>
        </mxCell>
        <mxCell id="0nuhWoVMp7FjzyUyhsKw-34" value="" style="rounded=0;orthogonalLoop=1;jettySize=auto;html=1;endArrow=oval;endFill=0;sketch=0;sourcePerimeterSpacing=0;targetPerimeterSpacing=0;endSize=10;edgeStyle=orthogonalEdgeStyle;" edge="1" parent="1">
          <mxGeometry relative="1" as="geometry">
            <mxPoint x="1045" y="530" as="sourcePoint" />
            <mxPoint x="1045" y="480" as="targetPoint" />
          </mxGeometry>
        </mxCell>
      </root>
    </mxGraphModel>
  </diagram>
</mxfile>
